<svg width="31" height="30" viewBox="0 0 31 30" fill="none" xmlns="http://www.w3.org/2000/svg">
<path d="M12.0298 28.2823C12.0298 27.8133 12.0125 26.2698 12.0125 24.3559C12.0125 23.0178 12.4485 22.1446 12.9419 21.7C9.83506 21.335 6.5669 20.1051 6.5669 14.6026C6.5669 13.0361 7.1136 11.7548 8.00697 10.7519C7.8643 10.3883 7.38161 8.92856 8.14565 6.95251C8.14565 6.95251 9.32037 6.56594 11.9952 8.42306C13.1112 8.10543 14.3086 7.94459 15.5007 7.94189C16.6901 7.94462 17.8874 8.10543 19.0062 8.42306C21.6783 6.56594 22.853 6.95251 22.853 6.95251C23.6171 8.92856 23.137 10.3883 22.9917 10.7519C23.8877 11.7548 24.4291 13.0348 24.4291 14.6026C24.4291 20.1172 21.1569 21.3323 18.0355 21.6864C18.5408 22.1325 18.9875 23.007 18.9875 24.3478C18.9875 26.2657 18.9702 27.812 18.9702 28.2823C18.9702 28.6675 19.2222 29.1122 19.9329 28.9743C25.4931 27.074 29.5 21.6946 29.5 15.3555C29.5 7.42692 23.2304 1 15.498 1C7.7683 1 1.5 7.42557 1.5 15.3555C1.5 21.6973 5.51086 27.078 11.0791 28.9757C11.7752 29.1082 12.0298 28.6648 12.0298 28.2823Z" stroke="white" stroke-width="1.7" stroke-miterlimit="10" stroke-linecap="round" stroke-linejoin="round"/>
<path d="M5.66766 21.4446C6.94906 21.8393 7.45442 22.2718 8.05711 23.2963C8.65847 24.3208 9.36384 25.4643 12.0146 24.8128" stroke="white" stroke-width="1.7" stroke-miterlimit="10" stroke-linecap="round" stroke-linejoin="round"/>
</svg>
