<svg width="29" height="28" viewBox="0 0 29 28" fill="none" xmlns="http://www.w3.org/2000/svg">
<path d="M20.9167 7.58337H20.9283M8.66668 2.33337H20.3333C23.555 2.33337 26.1667 4.94505 26.1667 8.16671V19.8334C26.1667 23.055 23.555 25.6667 20.3333 25.6667H8.66668C5.44502 25.6667 2.83334 23.055 2.83334 19.8334V8.16671C2.83334 4.94505 5.44502 2.33337 8.66668 2.33337ZM19.1667 13.265C19.3107 14.236 19.1448 15.2276 18.6927 16.0989C18.2406 16.9702 17.5253 17.6767 16.6486 18.118C15.7718 18.5593 14.7782 18.7129 13.8091 18.557C12.84 18.401 11.9447 17.9435 11.2507 17.2494C10.5566 16.5553 10.099 15.6601 9.94309 14.691C9.78715 13.7219 9.94075 12.7282 10.3821 11.8515C10.8234 10.9747 11.5299 10.2594 12.4012 9.80732C13.2724 9.35524 14.2641 9.18939 15.235 9.33337C16.2254 9.48024 17.1423 9.94175 17.8503 10.6497C18.5583 11.3577 19.0198 12.2746 19.1667 13.265Z" stroke="white" stroke-width="1.7" stroke-linecap="round" stroke-linejoin="round"/>
</svg>
