<svg width="29" height="28" viewBox="0 0 29 28" fill="none" xmlns="http://www.w3.org/2000/svg">
<path d="M19.1666 9.33337C21.0232 9.33337 22.8036 10.0709 24.1164 11.3836C25.4291 12.6964 26.1666 14.4769 26.1666 16.3334V24.5H21.5V16.3334C21.5 15.7145 21.2541 15.121 20.8166 14.6835C20.379 14.2459 19.7855 14 19.1666 14C18.5478 14 17.9543 14.2459 17.5167 14.6835C17.0791 15.121 16.8333 15.7145 16.8333 16.3334V24.5H12.1666V16.3334C12.1666 14.4769 12.9041 12.6964 14.2169 11.3836C15.5297 10.0709 17.3101 9.33337 19.1666 9.33337Z" stroke="white" stroke-width="1.7" stroke-linecap="round" stroke-linejoin="round"/>
<path d="M7.49998 10.5H2.83331V24.5H7.49998V10.5Z" stroke="white" stroke-width="1.7" stroke-linecap="round" stroke-linejoin="round"/>
<path d="M5.16665 7.00004C6.45531 7.00004 7.49998 5.95537 7.49998 4.66671C7.49998 3.37804 6.45531 2.33337 5.16665 2.33337C3.87798 2.33337 2.83331 3.37804 2.83331 4.66671C2.83331 5.95537 3.87798 7.00004 5.16665 7.00004Z" stroke="white" stroke-width="1.7" stroke-linecap="round" stroke-linejoin="round"/>
</svg>
