<svg width="29" height="28" viewBox="0 0 29 28" fill="none" xmlns="http://www.w3.org/2000/svg">
<g clip-path="url(#clip0_409_5080)">
<path d="M27.3333 3.50001C26.2161 4.28807 24.9791 4.89081 23.67 5.28501C22.9674 4.47711 22.0335 3.90449 20.9949 3.64459C19.9562 3.3847 18.8627 3.45007 17.8624 3.83188C16.8621 4.21368 16.0032 4.89348 15.4018 5.77935C14.8004 6.66522 14.4856 7.7144 14.5 8.78501V9.95168C12.4497 10.0048 10.4181 9.55013 8.58617 8.62803C6.75419 7.70594 5.17869 6.34509 3.99999 4.66668C3.99999 4.66668 -0.666677 15.1667 9.83332 19.8333C7.43061 21.4643 4.56834 22.2821 1.66666 22.1667C12.1667 28 25 22.1667 25 8.75001C24.9989 8.42504 24.9677 8.10087 24.9067 7.78168C26.0974 6.60742 26.9376 5.12484 27.3333 3.50001Z" stroke="white" stroke-width="1.7" stroke-linecap="round" stroke-linejoin="round"/>
</g>
<defs>
<clipPath id="clip0_409_5080">
<rect width="28" height="28" fill="white" transform="translate(0.5)"/>
</clipPath>
</defs>
</svg>
