<svg width="29" height="28" viewBox="0 0 29 28" fill="none" xmlns="http://www.w3.org/2000/svg">
<g clip-path="url(#clip0_409_5079)">
<path d="M26.7967 7.48996C26.6581 6.93627 26.3758 6.42896 25.9784 6.01927C25.581 5.60957 25.0825 5.31201 24.5333 5.15663C22.5267 4.66663 14.5 4.66663 14.5 4.66663C14.5 4.66663 6.47332 4.66663 4.46665 5.20329C3.91744 5.35867 3.41896 5.65624 3.02156 6.06593C2.62415 6.47563 2.34191 6.98294 2.20332 7.53663C1.83607 9.57311 1.65643 11.639 1.66665 13.7083C1.65356 15.7932 1.83321 17.8748 2.20332 19.9266C2.3561 20.4631 2.64468 20.9511 3.04115 21.3435C3.43763 21.7359 3.92861 22.0194 4.46665 22.1666C6.47332 22.7033 14.5 22.7033 14.5 22.7033C14.5 22.7033 22.5267 22.7033 24.5333 22.1666C25.0825 22.0112 25.581 21.7137 25.9784 21.304C26.3758 20.8943 26.6581 20.387 26.7967 19.8333C27.1611 17.8121 27.3407 15.762 27.3333 13.7083C27.3464 11.6234 27.1668 9.54177 26.7967 7.48996Z" stroke="white" stroke-width="1.7" stroke-linecap="round" stroke-linejoin="round"/>
<path d="M11.875 17.5233L18.5833 13.7083L11.875 9.89329V17.5233Z" stroke="white" stroke-width="1.7" stroke-linecap="round" stroke-linejoin="round"/>
</g>
<defs>
<clipPath id="clip0_409_5079">
<rect width="28" height="28" fill="white" transform="translate(0.5)"/>
</clipPath>
</defs>
</svg>
