<svg width="21" height="16" viewBox="0 0 21 16" fill="none" xmlns="http://www.w3.org/2000/svg">
<path id="Vector" d="M17.7696 1.3297C16.4399 0.70986 15.0003 0.259978 13.5007 4.59862e-05C13.4876 -0.000374507 13.4745 0.00209293 13.4624 0.00727485C13.4503 0.0124568 13.4395 0.0202273 13.4307 0.0300383C13.2508 0.359952 13.0408 0.789839 12.9009 1.11975C11.3103 0.879816 9.6927 0.879816 8.10212 1.11975C7.96215 0.779842 7.75221 0.359952 7.56226 0.0300383C7.55226 0.0100436 7.52227 4.59862e-05 7.49228 4.59862e-05C5.99267 0.259978 4.56304 0.70986 3.22339 1.3297C3.2134 1.3297 3.2034 1.3397 3.1934 1.34969C0.474115 5.41863 -0.275689 9.37759 0.094214 13.2966C0.094214 13.3166 0.104211 13.3366 0.124206 13.3466C1.92373 14.6662 3.65328 15.466 5.36283 15.9959C5.39283 16.0059 5.42282 15.9959 5.43282 15.9759C5.83271 15.426 6.19262 14.8462 6.50253 14.2363C6.52253 14.1963 6.50253 14.1563 6.46255 14.1463C5.89269 13.9264 5.35284 13.6665 4.82298 13.3665C4.78299 13.3466 4.78299 13.2866 4.81298 13.2566C4.92295 13.1766 5.03292 13.0866 5.14289 13.0066C5.16289 12.9866 5.19288 12.9866 5.21287 12.9966C8.65197 14.5662 12.361 14.5662 15.7601 12.9966C15.7801 12.9866 15.8101 12.9866 15.8301 13.0066C15.9401 13.0966 16.05 13.1766 16.16 13.2666C16.2 13.2966 16.2 13.3565 16.15 13.3765C15.6301 13.6865 15.0803 13.9364 14.5104 14.1563C14.4704 14.1663 14.4605 14.2163 14.4704 14.2463C14.7904 14.8562 15.1503 15.436 15.5402 15.9859C15.5702 15.9959 15.6002 16.0059 15.6301 15.9959C17.3497 15.466 19.0792 14.6662 20.8788 13.3466C20.8988 13.3366 20.9088 13.3166 20.9088 13.2966C21.3486 8.76775 20.1789 4.83878 17.8096 1.34969C17.7996 1.3397 17.7896 1.3297 17.7696 1.3297ZM7.0224 10.9072C5.99267 10.9072 5.13289 9.95744 5.13289 8.78775C5.13289 7.61805 5.97267 6.6683 7.0224 6.6683C8.08212 6.6683 8.9219 7.62805 8.9119 8.78775C8.9119 9.95744 8.07212 10.9072 7.0224 10.9072ZM13.9906 10.9072C12.9608 10.9072 12.1011 9.95744 12.1011 8.78775C12.1011 7.61805 12.9408 6.6683 13.9906 6.6683C15.0503 6.6683 15.8901 7.62805 15.8801 8.78775C15.8801 9.95744 15.0503 10.9072 13.9906 10.9072Z" fill="#E2E2E2"/>
</svg>
