<svg width="50" height="50" viewBox="0 0 50 50" fill="none" xmlns="http://www.w3.org/2000/svg">
<g id="solar:hamburger-menu-bold-duotone">
<g id="Group">
<path id="Vector" opacity="0.5" d="M24.9993 45.8333C15.1785 45.8333 10.2681 45.8333 7.21601 42.7813C4.16602 39.7333 4.16602 34.8208 4.16602 25C4.16602 15.1792 4.16602 10.2688 7.21601 7.21669C10.2702 4.16669 15.1785 4.16669 24.9993 4.16669C34.8202 4.16669 39.7306 4.16669 42.7806 7.21669C45.8327 10.2709 45.8327 15.1792 45.8327 25C45.8327 34.8208 45.8327 39.7313 42.7806 42.7813C39.7327 45.8333 34.8202 45.8333 24.9993 45.8333Z" fill="white" fill-opacity="0.33"/>
<path id="Vector_2" d="M36.7368 18.2631C36.7368 18.5981 36.6037 18.9194 36.3669 19.1563C36.13 19.3932 35.8087 19.5263 35.4737 19.5263H15.2632C14.9281 19.5263 14.6069 19.3932 14.37 19.1563C14.1331 18.9194 14 18.5981 14 18.2631C14 17.9281 14.1331 17.6068 14.37 17.3699C14.6069 17.133 14.9281 16.9999 15.2632 16.9999H35.4737C35.8087 16.9999 36.13 17.133 36.3669 17.3699C36.6037 17.6068 36.7368 17.9281 36.7368 18.2631ZM36.7368 24.9999C36.7368 25.3349 36.6037 25.6562 36.3669 25.8931C36.13 26.13 35.8087 26.2631 35.4737 26.2631H15.2632C14.9281 26.2631 14.6069 26.13 14.37 25.8931C14.1331 25.6562 14 25.3349 14 24.9999C14 24.6649 14.1331 24.3436 14.37 24.1068C14.6069 23.8699 14.9281 23.7368 15.2632 23.7368H35.4737C35.8087 23.7368 36.13 23.8699 36.3669 24.1068C36.6037 24.3436 36.7368 24.6649 36.7368 24.9999ZM36.7368 31.7368C36.7368 32.0718 36.6037 32.3931 36.3669 32.63C36.13 32.8669 35.8087 32.9999 35.4737 32.9999H15.2632C14.9281 32.9999 14.6069 32.8669 14.37 32.63C14.1331 32.3931 14 32.0718 14 31.7368C14 31.4018 14.1331 31.0805 14.37 30.8436C14.6069 30.6067 14.9281 30.4736 15.2632 30.4736H35.4737C35.8087 30.4736 36.13 30.6067 36.3669 30.8436C36.6037 31.0805 36.7368 31.4018 36.7368 31.7368Z" fill="white"/>
</g>
</g>
</svg>
